<svg width="720" height="720" viewBox="0 0 720 720" fill="none" xmlns="http://www.w3.org/2000/svg">
<g clip-path="url(#clip0_1_2)">
<rect width="720" height="720" rx="50" fill="#1F51FF"/>
<path d="M222.384 387.64C226.48 387.64 230.096 388.44 233.232 390.04C236.368 391.64 238.8 394.072 240.528 397.336C242.32 400.6 243.216 404.728 243.216 409.72V439H234V410.776C234 405.848 232.848 402.136 230.544 399.64C228.24 397.144 225.008 395.896 220.848 395.896C217.776 395.896 215.088 396.536 212.784 397.816C210.48 399.096 208.688 400.984 207.408 403.48C206.192 405.976 205.584 409.08 205.584 412.792V439H196.368V410.776C196.368 405.848 195.216 402.136 192.912 399.64C190.672 397.144 187.44 395.896 183.216 395.896C180.208 395.896 177.552 396.536 175.248 397.816C172.944 399.096 171.152 400.984 169.872 403.48C168.592 405.976 167.952 409.08 167.952 412.792V439H158.736V388.12H167.568V401.656L166.128 398.2C167.728 394.872 170.192 392.28 173.52 390.424C176.848 388.568 180.72 387.64 185.136 387.64C190 387.64 194.192 388.856 197.712 391.288C201.232 393.656 203.536 397.272 204.624 402.136L200.88 400.6C202.416 396.696 205.104 393.56 208.944 391.192C212.784 388.824 217.264 387.64 222.384 387.64ZM281.966 439.576C276.846 439.576 272.302 438.456 268.334 436.216C264.366 433.976 261.23 430.904 258.926 427C256.622 423.032 255.47 418.552 255.47 413.56C255.47 408.504 256.622 404.024 258.926 400.12C261.23 396.216 264.366 393.176 268.334 391C272.302 388.76 276.846 387.64 281.966 387.64C287.022 387.64 291.534 388.76 295.502 391C299.534 393.176 302.67 396.216 304.91 400.12C307.214 403.96 308.366 408.44 308.366 413.56C308.366 418.616 307.214 423.096 304.91 427C302.67 430.904 299.534 433.976 295.502 436.216C291.534 438.456 287.022 439.576 281.966 439.576ZM281.966 431.512C285.23 431.512 288.142 430.776 290.702 429.304C293.326 427.832 295.374 425.752 296.846 423.064C298.318 420.312 299.054 417.144 299.054 413.56C299.054 409.912 298.318 406.776 296.846 404.152C295.374 401.464 293.326 399.384 290.702 397.912C288.142 396.44 285.23 395.704 281.966 395.704C278.702 395.704 275.79 396.44 273.23 397.912C270.67 399.384 268.622 401.464 267.086 404.152C265.55 406.776 264.782 409.912 264.782 413.56C264.782 417.144 265.55 420.312 267.086 423.064C268.622 425.752 270.67 427.832 273.23 429.304C275.79 430.776 278.702 431.512 281.966 431.512ZM348.279 387.64C352.439 387.64 356.087 388.44 359.223 390.04C362.423 391.64 364.919 394.072 366.711 397.336C368.503 400.6 369.399 404.728 369.399 409.72V439H360.183V410.776C360.183 405.848 358.967 402.136 356.535 399.64C354.167 397.144 350.807 395.896 346.455 395.896C343.191 395.896 340.343 396.536 337.911 397.816C335.479 399.096 333.591 400.984 332.247 403.48C330.967 405.976 330.327 409.08 330.327 412.792V439H321.111V388.12H329.943V401.848L328.503 398.2C330.167 394.872 332.727 392.28 336.183 390.424C339.639 388.568 343.671 387.64 348.279 387.64ZM407.479 439.576C402.551 439.576 398.135 438.488 394.231 436.312C390.391 434.136 387.351 431.096 385.111 427.192C382.871 423.288 381.751 418.744 381.751 413.56C381.751 408.376 382.871 403.864 385.111 400.024C387.351 396.12 390.391 393.08 394.231 390.904C398.135 388.728 402.551 387.64 407.479 387.64C411.767 387.64 415.639 388.6 419.095 390.52C422.551 392.44 425.303 395.32 427.351 399.16C429.463 403 430.519 407.8 430.519 413.56C430.519 419.32 429.495 424.12 427.447 427.96C425.463 431.8 422.743 434.712 419.287 436.696C415.831 438.616 411.895 439.576 407.479 439.576ZM408.247 431.512C411.447 431.512 414.327 430.776 416.887 429.304C419.511 427.832 421.559 425.752 423.031 423.064C424.567 420.312 425.335 417.144 425.335 413.56C425.335 409.912 424.567 406.776 423.031 404.152C421.559 401.464 419.511 399.384 416.887 397.912C414.327 396.44 411.447 395.704 408.247 395.704C404.983 395.704 402.071 396.44 399.511 397.912C396.951 399.384 394.903 401.464 393.367 404.152C391.831 406.776 391.063 409.912 391.063 413.56C391.063 417.144 391.831 420.312 393.367 423.064C394.903 425.752 396.951 427.832 399.511 429.304C402.071 430.776 404.983 431.512 408.247 431.512ZM425.623 439V425.272L426.199 413.464L425.239 401.656V367.768H434.455V439H425.623ZM483.476 439V428.248L482.996 426.232V407.896C482.996 403.992 481.844 400.984 479.54 398.872C477.3 396.696 473.908 395.608 469.364 395.608C466.356 395.608 463.412 396.12 460.532 397.144C457.652 398.104 455.22 399.416 453.236 401.08L449.396 394.168C452.02 392.056 455.156 390.456 458.804 389.368C462.516 388.216 466.388 387.64 470.42 387.64C477.396 387.64 482.772 389.336 486.548 392.728C490.324 396.12 492.212 401.304 492.212 408.28V439H483.476ZM466.772 439.576C462.996 439.576 459.668 438.936 456.788 437.656C453.972 436.376 451.796 434.616 450.26 432.376C448.724 430.072 447.956 427.48 447.956 424.6C447.956 421.848 448.596 419.352 449.876 417.112C451.22 414.872 453.364 413.08 456.308 411.736C459.316 410.392 463.348 409.72 468.404 409.72H484.532V416.344H468.788C464.18 416.344 461.076 417.112 459.476 418.648C457.876 420.184 457.076 422.04 457.076 424.216C457.076 426.712 458.068 428.728 460.052 430.264C462.036 431.736 464.788 432.472 468.308 432.472C471.764 432.472 474.772 431.704 477.332 430.168C479.956 428.632 481.844 426.392 482.996 423.448L484.82 429.784C483.604 432.792 481.46 435.192 478.388 436.984C475.316 438.712 471.444 439.576 466.772 439.576ZM510.538 458.2C508.106 458.2 505.738 457.784 503.434 456.952C501.13 456.184 499.146 455.032 497.482 453.496L501.418 446.584C502.698 447.8 504.106 448.728 505.642 449.368C507.178 450.008 508.81 450.328 510.538 450.328C512.778 450.328 514.634 449.752 516.106 448.6C517.578 447.448 518.954 445.4 520.234 442.456L523.402 435.448L524.362 434.296L544.33 388.12H553.354L528.682 444.088C527.21 447.672 525.546 450.488 523.69 452.536C521.898 454.584 519.914 456.024 517.738 456.856C515.562 457.752 513.162 458.2 510.538 458.2ZM522.634 440.632L499.402 388.12H509.002L528.778 433.432L522.634 440.632Z" fill="white"/>
<path d="M238.64 294.864V283.344H295.472V294.864H238.64ZM257.2 322V285.392L261.936 297.936L222.384 232.4H244.528L274.608 282.704H262.064L292.4 232.4H312.624L273.328 297.936L277.936 285.392V322H257.2ZM323.511 322V232.4H395.831V248.912H344.119V267.344H368.951C379.788 267.344 388.023 269.605 393.655 274.128C399.372 278.651 402.231 285.221 402.231 293.84C402.231 302.715 399.074 309.627 392.759 314.576C386.444 319.525 377.527 322 366.007 322H323.511ZM344.119 306.64H364.855C370.146 306.64 374.199 305.616 377.015 303.568C379.831 301.435 381.239 298.363 381.239 294.352C381.239 286.501 375.778 282.576 364.855 282.576H344.119V306.64ZM432.839 322V244.56L437.575 249.296H404.295V232.4H481.991V249.296H448.711L453.319 244.56V322H432.839Z" fill="#FEFCFF"/>
<path fill-rule="evenodd" clip-rule="evenodd" d="M401.458 517.958C410.366 527.492 415.822 540.293 415.835 554.371C415.861 583.872 391.966 607.81 362.465 607.835C332.963 607.861 309.026 583.966 309 554.465C308.974 524.963 332.869 501.026 362.371 501C372.345 500.991 381.683 503.717 389.676 508.469" fill="#FEFCFF"/>
<g style="mix-blend-mode:soft-light">
<path fill-rule="evenodd" clip-rule="evenodd" d="M401.458 517.958C410.366 527.492 415.822 540.293 415.835 554.371C415.861 583.872 391.966 607.81 362.465 607.835C332.963 607.861 309.026 583.966 309 554.465C308.974 524.963 332.869 501.026 362.371 501C372.345 500.991 381.683 503.717 389.676 508.469" fill="white" fill-opacity="0.5"/>
</g>
<path fill-rule="evenodd" clip-rule="evenodd" d="M362.416 611.835C331.88 611.838 307.027 587.009 307 556.467C306.986 541.664 312.739 527.742 323.197 517.266C333.655 506.79 347.566 501.014 362.369 501H362.418C372.392 501 382.169 503.679 390.698 508.75C391.647 509.314 391.959 510.541 391.395 511.491C390.829 512.44 389.604 512.751 388.653 512.188C380.743 507.485 371.672 505 362.418 505H362.373C348.639 505.013 335.73 510.372 326.028 520.092C316.325 529.813 310.987 542.729 311 556.463C311.025 584.798 334.089 607.832 362.416 607.835H362.463C376.197 607.823 389.104 602.464 398.808 592.743C408.511 583.023 413.848 570.106 413.835 556.373C413.823 543.31 408.908 530.861 399.997 521.323C399.242 520.517 399.285 519.251 400.093 518.497C400.9 517.744 402.166 517.785 402.919 518.593C412.525 528.873 417.822 542.289 417.835 556.369C417.849 571.172 412.096 585.093 401.638 595.569C391.18 606.046 377.269 611.822 362.467 611.835H362.416Z" fill="#FF7A2F"/>
<path d="M335 556L354.5 580.5L389.5 542" stroke="#1F51FF" stroke-width="7"/>
</g>
<defs>
<clipPath id="clip0_1_2">
<rect width="720" height="720" rx="50" fill="white"/>
</clipPath>
</defs>
</svg>
